<svg xmlns="http://www.w3.org/2000/svg" viewBox="0 0 24 24" fill="none" stroke="currentColor" stroke-width="2" stroke-linecap="round" stroke-linejoin="round">
  <!-- Documento de texto -->
  <path d="M14 2H6a2 2 0 0 0-2 2v16a2 2 0 0 0 2 2h12a2 2 0 0 0 2-2V8z"/>
  <polyline points="14,2 14,8 20,8"/>
  
  <!-- Líneas de texto con placeholders -->
  <line x1="8" y1="12" x2="16" y2="12"/>
  <line x1="8" y1="15" x2="14" y2="15"/>
  
  <!-- Símbolo de reemplazo (flecha circular) -->
  <path d="M17 1l4 4-4 4"/>
  <path d="M3 11V9a4 4 0 0 1 4-4h14"/>
  <path d="M7 23l-4-4 4-4"/>
  <path d="M21 13v2a4 4 0 0 1-4 4H3"/>
</svg> 